<?xml version="1.0" encoding="UTF-8" standalone="no"?>
<!-- Created with Inkscape (http://www.inkscape.org/) -->
<svg
   xmlns:dc="http://purl.org/dc/elements/1.1/"
   xmlns:cc="http://creativecommons.org/ns#"
   xmlns:rdf="http://www.w3.org/1999/02/22-rdf-syntax-ns#"
   xmlns:svg="http://www.w3.org/2000/svg"
   xmlns="http://www.w3.org/2000/svg"
   xmlns:xlink="http://www.w3.org/1999/xlink"
   xmlns:sodipodi="http://sodipodi.sourceforge.net/DTD/sodipodi-0.dtd"
   xmlns:inkscape="http://www.inkscape.org/namespaces/inkscape"
   inkscape:export-ydpi="90.000000"
   inkscape:export-xdpi="90.000000"
   inkscape:export-filename="/home/jimmac/Desktop/wi-fi.png"
   width="72"
   height="72"
   id="svg11300"
   sodipodi:version="0.32"
   inkscape:version="0.46"
   sodipodi:docbase="/home/Sam/Desktop/unofficial icons"
   sodipodi:docname="plugin-rubik.svg"
   inkscape:output_extension="org.inkscape.output.svg.inkscape"
   version="1.0">
  <sodipodi:namedview
     stroke="#ef2929"
     fill="#eeeeec"
     id="base"
     pagecolor="#ffffff"
     bordercolor="#666666"
     borderopacity="0.25490196"
     inkscape:pageopacity="0.0"
     inkscape:pageshadow="2"
     inkscape:zoom="4"
     inkscape:cx="67.342853"
     inkscape:cy="36.100256"
     inkscape:current-layer="svg11300"
     showgrid="false"
     inkscape:grid-bbox="true"
     inkscape:document-units="px"
     inkscape:showpageshadow="false"
     inkscape:window-width="1280"
     inkscape:window-height="978"
     inkscape:window-x="0"
     inkscape:window-y="0"
     showguides="true"
     inkscape:guide-bbox="true"
     width="72px"
     height="72px">
    <inkscape:grid
       type="xygrid"
       id="grid7887" />
  </sodipodi:namedview>
  <defs
     id="defs3">
    <inkscape:perspective
       sodipodi:type="inkscape:persp3d"
       inkscape:vp_x="0 : 36 : 1"
       inkscape:vp_y="0 : 1000 : 0"
       inkscape:vp_z="72 : 36 : 1"
       inkscape:persp3d-origin="36 : 24 : 1"
       id="perspective83" />
    <linearGradient
       id="linearGradient3153">
      <stop
         style="stop-color:#f9f9f8;stop-opacity:0.39215687;"
         offset="0"
         id="stop3155" />
      <stop
         style="stop-color:#cdcfca;stop-opacity:0.39215687;"
         offset="1"
         id="stop3157" />
    </linearGradient>
    <linearGradient
       id="linearGradient2338">
      <stop
         id="stop2340"
         offset="0"
         style="stop-color:#3465a4;stop-opacity:1" />
      <stop
         id="stop2342"
         offset="1"
         style="stop-color:#3465a4;stop-opacity:0" />
    </linearGradient>
    <linearGradient
       id="linearGradient8121">
      <stop
         id="stop8123"
         offset="0"
         style="stop-color:#c2f491;stop-opacity:1;" />
      <stop
         id="stop8125"
         offset="1"
         style="stop-color:#73d216;stop-opacity:1;" />
    </linearGradient>
    <linearGradient
       id="linearGradient8132">
      <stop
         id="stop8134"
         offset="0"
         style="stop-color:#ff6666;stop-opacity:1;" />
      <stop
         id="stop8136"
         offset="1"
         style="stop-color:#cc0000;stop-opacity:1;" />
    </linearGradient>
    <linearGradient
       id="linearGradient8140">
      <stop
         id="stop8142"
         offset="0"
         style="stop-color:#95b5de;stop-opacity:1;" />
      <stop
         id="stop8144"
         offset="1"
         style="stop-color:#3465a4;stop-opacity:1;" />
    </linearGradient>
    <radialGradient
       inkscape:collect="always"
       xlink:href="#linearGradient8121"
       id="radialGradient2311"
       gradientUnits="userSpaceOnUse"
       gradientTransform="matrix(-0.22329,0.9778116,-1.1143742,-0.2541614,35.018493,124.98666)"
       cx="-92.794113"
       cy="38.769665"
       fx="-92.794113"
       fy="38.769665"
       r="7.6694655" />
    <radialGradient
       inkscape:collect="always"
       xlink:href="#linearGradient8132"
       id="radialGradient2313"
       gradientUnits="userSpaceOnUse"
       gradientTransform="matrix(-0.1173972,1.1602213,-1.2566549,-0.1269981,59.064191,115.27716)"
       cx="-77.731216"
       cy="34.36335"
       fx="-77.731216"
       fy="34.36335"
       r="10.409584" />
    <radialGradient
       inkscape:collect="always"
       xlink:href="#linearGradient8140"
       id="radialGradient2315"
       gradientUnits="userSpaceOnUse"
       gradientTransform="matrix(-0.1550246,1.0915169,-1.0932846,-0.1550843,37.755765,99.168425)"
       cx="-77.583"
       cy="22.550001"
       fx="-77.583"
       fy="22.550001"
       r="6.2093911" />
    <radialGradient
       gradientUnits="userSpaceOnUse"
       gradientTransform="matrix(1,0,0,0.184,0,33.97501)"
       r="22.097088"
       fy="41.63604"
       fx="24.218407"
       cy="41.63604"
       cx="24.218407"
       id="radialGradient12135"
       xlink:href="#linearGradient12129"
       inkscape:collect="always" />
    <linearGradient
       id="aigrd3"
       gradientUnits="userSpaceOnUse"
       x1="21.9326"
       y1="24.627399"
       x2="21.9326"
       y2="7.1090999"
       style="stroke-dasharray:none;stroke-miterlimit:4.0000000;stroke-width:1.2166667">
      <stop
         offset="0"
         style="stop-color:#D0D6E5;stroke-dasharray:none;stroke-miterlimit:4.0000000;stroke-width:1.2166667"
         id="stop16199" />
      <stop
         offset="1"
         style="stop-color:#093A80;stroke-dasharray:none;stroke-miterlimit:4.0000000;stroke-width:1.2166667"
         id="stop16201" />
    </linearGradient>
    <linearGradient
       id="aigrd2"
       gradientUnits="userSpaceOnUse"
       x1="21.877001"
       y1="30.341299"
       x2="21.9168"
       y2="22.5769"
       style="stroke-dasharray:none;stroke-miterlimit:4.0000000;stroke-width:1.2166667">
      <stop
         offset="0.0000000"
         style="stop-color:#5e4f07;stop-opacity:1.0000000;"
         id="stop16184" />
      <stop
         offset="1.0000000"
         style="stop-color:#348a31;stop-opacity:1.0000000;"
         id="stop16186" />
    </linearGradient>
    <linearGradient
       id="aigrd1"
       gradientUnits="userSpaceOnUse"
       x1="12.4873"
       y1="3.7319"
       x2="31.081301"
       y2="36.032799"
       style="stroke-dasharray:none;stroke-miterlimit:4.0000000;stroke-width:1.2166667">
      <stop
         offset="0"
         style="stop-color:#D2D2D2;stroke-dasharray:none;stroke-miterlimit:4.0000000;stroke-width:1.2166667"
         id="stop16177" />
      <stop
         offset="1"
         style="stop-color:#EDEDED;stroke-dasharray:none;stroke-miterlimit:4.0000000;stroke-width:1.2166667"
         id="stop16179" />
    </linearGradient>
    <linearGradient
       id="linearGradient12129"
       inkscape:collect="always">
      <stop
         id="stop12131"
         offset="0"
         style="stop-color:#000000;stop-opacity:1;" />
      <stop
         id="stop12133"
         offset="1"
         style="stop-color:#000000;stop-opacity:0;" />
    </linearGradient>
    <linearGradient
       id="linearGradient2392">
      <stop
         style="stop-color:#715b26;stop-opacity:1.0000000;"
         offset="0.0000000"
         id="stop2394" />
      <stop
         style="stop-color:#312710;stop-opacity:1.0000000;"
         offset="1.0000000"
         id="stop2396" />
    </linearGradient>
    <linearGradient
       style="stroke-dasharray:none;stroke-miterlimit:4.0000000;stroke-width:1.2166667"
       y2="7.1090999"
       x2="21.9326"
       y1="24.627399"
       x1="21.9326"
       gradientUnits="userSpaceOnUse"
       id="linearGradient7648">
      <stop
         id="stop7650"
         style="stop-color:#8595bc;stop-opacity:1;"
         offset="0" />
      <stop
         id="stop7652"
         style="stop-color:#041a3b;stop-opacity:1;"
         offset="1" />
    </linearGradient>
    <linearGradient
       id="linearGradient2224">
      <stop
         id="stop2226"
         offset="0"
         style="stop-color:#7c7c7c;stop-opacity:1;" />
      <stop
         id="stop2228"
         offset="1"
         style="stop-color:#b8b8b8;stop-opacity:1;" />
    </linearGradient>
    <linearGradient
       id="linearGradient8171">
      <stop
         id="stop8173"
         offset="0"
         style="stop-color:#bbbdba;stop-opacity:1;" />
      <stop
         id="stop8175"
         offset="1"
         style="stop-color:#70746e;stop-opacity:1;" />
    </linearGradient>
    <linearGradient
       id="linearGradient5048">
      <stop
         id="stop5050"
         offset="0"
         style="stop-color:black;stop-opacity:0;" />
      <stop
         style="stop-color:black;stop-opacity:1;"
         offset="0.5"
         id="stop5056" />
      <stop
         id="stop5052"
         offset="1"
         style="stop-color:black;stop-opacity:0;" />
    </linearGradient>
    <radialGradient
       r="19.677486"
       fy="13.534249"
       fx="8.0419788"
       cy="13.534249"
       cx="8.0419788"
       gradientTransform="matrix(0.4610414,3.1815116,-3.065892,0.4305967,42.322711,-18.29637)"
       gradientUnits="userSpaceOnUse"
       id="radialGradient3433"
       xlink:href="#linearGradient3153"
       inkscape:collect="always" />
    <radialGradient
       inkscape:collect="always"
       xlink:href="#linearGradient3153"
       id="radialGradient4468"
       gradientUnits="userSpaceOnUse"
       gradientTransform="matrix(0.4610414,3.1815116,-3.065892,0.4305967,42.322711,-18.29637)"
       cx="8.0419788"
       cy="13.534249"
       fx="8.0419788"
       fy="13.534249"
       r="19.677486" />
  </defs>
  <metadata
     id="metadata4">
    <rdf:RDF>
      <cc:Work
         rdf:about="">
        <dc:format>image/svg+xml</dc:format>
        <dc:type
           rdf:resource="http://purl.org/dc/dcmitype/StillImage" />
        <dc:creator>
          <cc:Agent>
            <dc:title>Patrick Niklaus</dc:title>
          </cc:Agent>
        </dc:creator>
        <dc:source />
        <cc:license
           rdf:resource="http://creativecommons.org/licenses/GPL/2.0/" />
        <dc:title>Cube</dc:title>
        <dc:subject>
          <rdf:Bag />
        </dc:subject>
      </cc:Work>
      <cc:License
         rdf:about="http://creativecommons.org/licenses/GPL/2.0/">
        <cc:permits
           rdf:resource="http://web.resource.org/cc/Reproduction" />
        <cc:permits
           rdf:resource="http://web.resource.org/cc/Distribution" />
        <cc:requires
           rdf:resource="http://web.resource.org/cc/Notice" />
        <cc:permits
           rdf:resource="http://web.resource.org/cc/DerivativeWorks" />
        <cc:requires
           rdf:resource="http://web.resource.org/cc/ShareAlike" />
        <cc:requires
           rdf:resource="http://web.resource.org/cc/SourceCode" />
      </cc:License>
      <cc:Work
         rdf:about="">
        <dc:format>image/svg+xml</dc:format>
        <dc:type
           rdf:resource="http://purl.org/dc/dcmitype/StillImage" />
      </cc:Work>
    </rdf:RDF>
  </metadata>
  <g
     id="layer1"
     inkscape:label="Layer 1"
     inkscape:groupmode="layer" />
  <g
     id="g4429"
     transform="matrix(1.0505251,0,0,1.0505251,0.267071,-2.4198119)">
    <path
       sodipodi:nodetypes="ccccc"
       style="fill:#000000;fill-opacity:1;fill-rule:evenodd;stroke:#000000;stroke-width:1px;stroke-linecap:butt;stroke-linejoin:miter;stroke-opacity:1"
       d="M 33.465729,30.293155 L 1.4228355,16.948485 L 33.694282,3.5823683 L 65.56668,16.93332 L 33.465729,30.293155 z"
       id="path3479" />
    <path
       id="path3455"
       d="M 66.59438,57.087982 L 66.3496,17.800552 L 34.40562,31.018753 L 34.40562,69.449448 L 66.59438,57.087982 z"
       style="fill:#000000;fill-opacity:1;fill-rule:evenodd;stroke:#000000;stroke-width:0.97912598px;stroke-linecap:butt;stroke-linejoin:miter;stroke-opacity:1" />
    <path
       id="path3287"
       d="M 1.0902214,57.379351 L 1.3350029,18.091921 L 33.278989,31.310122 L 33.278989,69.740817 L 1.0902214,57.379351 z"
       style="fill:#000000;fill-opacity:1;fill-rule:evenodd;stroke:#000000;stroke-width:0.97912598px;stroke-linecap:butt;stroke-linejoin:miter;stroke-opacity:1" />
    <g
       id="g3279"
       transform="translate(3.0052041,7.2478446)">
      <path
         style="fill:url(#radialGradient4468);fill-opacity:1;fill-rule:evenodd;stroke:#888a85;stroke-width:1.54531538;stroke-linecap:butt;stroke-linejoin:miter;stroke-miterlimit:4;stroke-dasharray:none;stroke-dashoffset:0;stroke-opacity:1"
         d="M 30.861977,-4.1717551 L -2.4867726,9.8497934 L -2.4867726,49.976497 L 30.784779,62.820082 L 63.979136,49.976497 L 63.940539,9.8497934 L 30.861977,-4.1717551 z"
         id="rect2370"
         sodipodi:nodetypes="ccccccc" />
      <path
         style="fill:none;fill-rule:evenodd;stroke:#888a85;stroke-width:1.54531538;stroke-linecap:butt;stroke-linejoin:miter;stroke-miterlimit:4;stroke-dasharray:none;stroke-opacity:1"
         d="M 30.190398,23.381115 L 30.229301,62.51323"
         id="path9436"
         sodipodi:nodetypes="cc" />
      <path
         style="fill:none;fill-rule:evenodd;stroke:#888a85;stroke-width:1.54531538;stroke-linecap:butt;stroke-linejoin:miter;stroke-miterlimit:4;stroke-dasharray:none;stroke-opacity:1"
         d="M -2.353897,10.35827 L 30.276659,23.617738 L 63.148419,10.378275"
         id="path8465"
         sodipodi:nodetypes="ccc" />
    </g>
    <g
       transform="matrix(0.909316,0,0,0.909316,84.538599,-0.6391484)"
       id="g3268"
       style="fill:#ef2929;stroke:#a40000">
      <path
         style="opacity:1;fill:#ef2929;fill-opacity:1;stroke:#a40000;stroke-width:1;stroke-miterlimit:4;stroke-opacity:1"
         d="M -67.555049,32.500215 C -67.555049,32.500215 -58.408791,36.288128 -58.408791,36.288128 C -58.408791,36.288128 -58.409402,47.577688 -58.409402,47.577688 C -58.409402,47.577688 -67.575471,43.860022 -67.575471,43.860022 C -67.575471,43.860022 -67.555049,32.500215 -67.555049,32.500215 C -67.555049,32.500215 -67.555049,32.500215 -67.555049,32.500215"
         id="rect2477"
         sodipodi:nodetypes="ccccc" />
      <path
         style="opacity:1;fill:#ef2929;fill-opacity:1;stroke:#a40000;stroke-width:1;stroke-miterlimit:4;stroke-opacity:1"
         d="M -78.835976,27.82823 C -78.835976,27.82823 -69.534237,31.680536 -69.534237,31.680536 C -69.534237,31.680536 -69.558982,43.05553 -69.558982,43.05553 C -69.558982,43.05553 -78.881211,39.274528 -78.881211,39.274528 C -78.881211,39.274528 -78.835976,27.82823 -78.835976,27.82823 C -78.835976,27.82823 -78.835976,27.82823 -78.835976,27.82823"
         id="path3252"
         sodipodi:nodetypes="ccccc" />
      <path
         style="opacity:1;fill:#ef2929;fill-opacity:1;stroke:#a40000;stroke-width:1;stroke-miterlimit:4;stroke-opacity:1"
         d="M -90.250625,23.100864 C -90.250625,23.100864 -80.790237,27.018875 -80.790237,27.018875 C -80.790237,27.018875 -80.839812,38.480139 -80.839812,38.480139 C -80.839812,38.480139 -90.32139,34.634506 -90.32139,34.634506 C -90.32139,34.634506 -90.250625,23.100864 -90.250625,23.100864 C -90.250625,23.100864 -90.250625,23.100864 -90.250625,23.100864"
         id="path3254"
         sodipodi:nodetypes="ccccc" />
      <path
         style="opacity:1;fill:#ef2929;fill-opacity:1;stroke:#a40000;stroke-width:1;stroke-miterlimit:4;stroke-opacity:1"
         d="M -67.578883,45.758109 C -67.578883,45.758109 -58.409504,49.464004 -58.409504,49.464004 C -58.409504,49.464004 -58.410117,60.810371 -58.410117,60.810371 C -58.410117,60.810371 -67.599409,57.175475 -67.599409,57.175475 C -67.599409,57.175475 -67.578883,45.758109 -67.578883,45.758109 C -67.578883,45.758109 -67.578883,45.758109 -67.578883,45.758109"
         id="path3256"
         sodipodi:nodetypes="ccccc" />
      <path
         style="opacity:1;fill:#ef2929;fill-opacity:1;stroke:#a40000;stroke-width:1;stroke-miterlimit:4;stroke-opacity:1"
         d="M -78.888769,41.187107 C -78.888769,41.187107 -69.563117,44.956161 -69.563117,44.956161 C -69.563117,44.956161 -69.587988,56.388878 -69.587988,56.388878 C -69.587988,56.388878 -78.934235,52.691897 -78.934235,52.691897 C -78.934235,52.691897 -78.888769,41.187107 -78.888769,41.187107 C -78.888769,41.187107 -78.888769,41.187107 -78.888769,41.187107"
         id="path3258"
         sodipodi:nodetypes="ccccc" />
      <path
         style="opacity:1;fill:#ef2929;fill-opacity:1;stroke:#a40000;stroke-width:1;stroke-miterlimit:4;stroke-opacity:1"
         d="M -90.333214,36.561722 C -90.333214,36.561722 -80.848096,40.395226 -80.848096,40.395226 C -80.848096,40.395226 -80.897925,51.915145 -80.897925,51.915145 C -80.897925,51.915145 -90.404343,48.154807 -90.404343,48.154807 C -90.404343,48.154807 -90.333214,36.561722 -90.333214,36.561722 C -90.333214,36.561722 -90.333214,36.561722 -90.333214,36.561722"
         id="path3260"
         sodipodi:nodetypes="ccccc" />
      <path
         style="opacity:1;fill:#ef2929;fill-opacity:1;stroke:#a40000;stroke-width:1;stroke-miterlimit:4;stroke-opacity:1"
         d="M -67.603696,59.560337 C -67.603696,59.560337 -58.410245,63.180359 -58.410245,63.180359 C -58.410245,63.180359 -58.410862,74.586015 -58.410862,74.586015 C -58.410862,74.586015 -67.62433,71.03778 -67.62433,71.03778 C -67.62433,71.03778 -67.603696,59.560337 -67.603696,59.560337 C -67.603696,59.560337 -67.603696,59.560337 -67.603696,59.560337"
         id="path3262"
         sodipodi:nodetypes="ccccc" />
      <path
         style="opacity:1;fill:#ef2929;fill-opacity:1;stroke:#a40000;stroke-width:1;stroke-miterlimit:4;stroke-opacity:1"
         d="M -78.943732,55.095073 C -78.943732,55.095073 -69.593183,58.776954 -69.593183,58.776954 C -69.593183,58.776954 -69.618185,70.269919 -69.618185,70.269919 C -69.618185,70.269919 -78.989439,66.660919 -78.989439,66.660919 C -78.989439,66.660919 -78.943732,55.095073 -78.943732,55.095073 C -78.943732,55.095073 -78.943732,55.095073 -78.943732,55.095073"
         id="path3264"
         sodipodi:nodetypes="ccccc" />
      <path
         style="opacity:1;fill:#ef2929;fill-opacity:1;stroke:#a40000;stroke-width:1;stroke-miterlimit:4;stroke-opacity:1"
         d="M -90.419201,50.576481 C -90.419201,50.576481 -80.908333,54.32149 -80.908333,54.32149 C -80.908333,54.32149 -80.958427,65.902634 -80.958427,65.902634 C -80.958427,65.902634 -90.490711,62.231619 -90.490711,62.231619 C -90.490711,62.231619 -90.419201,50.576481 -90.419201,50.576481 C -90.419201,50.576481 -90.419201,50.576481 -90.419201,50.576481"
         id="path3266"
         sodipodi:nodetypes="ccccc" />
    </g>
    <g
       transform="matrix(-0.909316,0,0,0.909316,-17.57335,-0.539121)"
       id="g3435"
       style="fill:#8ae234;stroke:#4e9a06">
      <path
         style="opacity:1;fill:#8ae234;fill-opacity:1;stroke:#4e9a06;stroke-width:1;stroke-miterlimit:4;stroke-opacity:1"
         d="M -67.555049,32.500215 C -67.555049,32.500215 -58.408791,36.288128 -58.408791,36.288128 C -58.408791,36.288128 -58.409402,47.577688 -58.409402,47.577688 C -58.409402,47.577688 -67.575471,43.860022 -67.575471,43.860022 C -67.575471,43.860022 -67.555049,32.500215 -67.555049,32.500215 C -67.555049,32.500215 -67.555049,32.500215 -67.555049,32.500215"
         id="path3437"
         sodipodi:nodetypes="ccccc" />
      <path
         style="opacity:1;fill:#8ae234;fill-opacity:1;stroke:#4e9a06;stroke-width:1;stroke-miterlimit:4;stroke-opacity:1"
         d="M -78.835976,27.82823 C -78.835976,27.82823 -69.534237,31.680536 -69.534237,31.680536 C -69.534237,31.680536 -69.558982,43.05553 -69.558982,43.05553 C -69.558982,43.05553 -78.881211,39.274528 -78.881211,39.274528 C -78.881211,39.274528 -78.835976,27.82823 -78.835976,27.82823 C -78.835976,27.82823 -78.835976,27.82823 -78.835976,27.82823"
         id="path3439"
         sodipodi:nodetypes="ccccc" />
      <path
         style="opacity:1;fill:#8ae234;fill-opacity:1;stroke:#4e9a06;stroke-width:1;stroke-miterlimit:4;stroke-opacity:1"
         d="M -90.250625,23.100864 C -90.250625,23.100864 -80.790237,27.018875 -80.790237,27.018875 C -80.790237,27.018875 -80.839812,38.480139 -80.839812,38.480139 C -80.839812,38.480139 -90.32139,34.634506 -90.32139,34.634506 C -90.32139,34.634506 -90.250625,23.100864 -90.250625,23.100864 C -90.250625,23.100864 -90.250625,23.100864 -90.250625,23.100864"
         id="path3441"
         sodipodi:nodetypes="ccccc" />
      <path
         style="opacity:1;fill:#8ae234;fill-opacity:1;stroke:#4e9a06;stroke-width:1;stroke-miterlimit:4;stroke-opacity:1"
         d="M -67.578883,45.758109 C -67.578883,45.758109 -58.409504,49.464004 -58.409504,49.464004 C -58.409504,49.464004 -58.410117,60.810371 -58.410117,60.810371 C -58.410117,60.810371 -67.599409,57.175475 -67.599409,57.175475 C -67.599409,57.175475 -67.578883,45.758109 -67.578883,45.758109 C -67.578883,45.758109 -67.578883,45.758109 -67.578883,45.758109"
         id="path3443"
         sodipodi:nodetypes="ccccc" />
      <path
         style="opacity:1;fill:#8ae234;fill-opacity:1;stroke:#4e9a06;stroke-width:1;stroke-miterlimit:4;stroke-opacity:1"
         d="M -78.888769,41.187107 C -78.888769,41.187107 -69.563117,44.956161 -69.563117,44.956161 C -69.563117,44.956161 -69.587988,56.388878 -69.587988,56.388878 C -69.587988,56.388878 -78.934235,52.691897 -78.934235,52.691897 C -78.934235,52.691897 -78.888769,41.187107 -78.888769,41.187107 C -78.888769,41.187107 -78.888769,41.187107 -78.888769,41.187107"
         id="path3445"
         sodipodi:nodetypes="ccccc" />
      <path
         style="opacity:1;fill:#8ae234;fill-opacity:1;stroke:#4e9a06;stroke-width:1;stroke-miterlimit:4;stroke-opacity:1"
         d="M -90.333214,36.561722 C -90.333214,36.561722 -80.848096,40.395226 -80.848096,40.395226 C -80.848096,40.395226 -80.897925,51.915145 -80.897925,51.915145 C -80.897925,51.915145 -90.404343,48.154807 -90.404343,48.154807 C -90.404343,48.154807 -90.333214,36.561722 -90.333214,36.561722 C -90.333214,36.561722 -90.333214,36.561722 -90.333214,36.561722"
         id="path3447"
         sodipodi:nodetypes="ccccc" />
      <path
         style="opacity:1;fill:#8ae234;fill-opacity:1;stroke:#4e9a06;stroke-width:1;stroke-miterlimit:4;stroke-opacity:1"
         d="M -67.603696,59.560337 C -67.603696,59.560337 -58.410245,63.180359 -58.410245,63.180359 C -58.410245,63.180359 -58.410862,74.586015 -58.410862,74.586015 C -58.410862,74.586015 -67.62433,71.03778 -67.62433,71.03778 C -67.62433,71.03778 -67.603696,59.560337 -67.603696,59.560337 C -67.603696,59.560337 -67.603696,59.560337 -67.603696,59.560337"
         id="path3449"
         sodipodi:nodetypes="ccccc" />
      <path
         style="opacity:1;fill:#8ae234;fill-opacity:1;stroke:#4e9a06;stroke-width:1;stroke-miterlimit:4;stroke-opacity:1"
         d="M -78.943732,55.095073 C -78.943732,55.095073 -69.593183,58.776954 -69.593183,58.776954 C -69.593183,58.776954 -69.618185,70.269919 -69.618185,70.269919 C -69.618185,70.269919 -78.989439,66.660919 -78.989439,66.660919 C -78.989439,66.660919 -78.943732,55.095073 -78.943732,55.095073 C -78.943732,55.095073 -78.943732,55.095073 -78.943732,55.095073"
         id="path3451"
         sodipodi:nodetypes="ccccc" />
      <path
         style="opacity:1;fill:#8ae234;fill-opacity:1;stroke:#4e9a06;stroke-width:1;stroke-miterlimit:4;stroke-opacity:1"
         d="M -90.419201,50.576481 C -90.419201,50.576481 -80.908333,54.32149 -80.908333,54.32149 C -80.908333,54.32149 -80.958427,65.902634 -80.958427,65.902634 C -80.958427,65.902634 -90.490711,62.231619 -90.490711,62.231619 C -90.490711,62.231619 -90.419201,50.576481 -90.419201,50.576481 C -90.419201,50.576481 -90.419201,50.576481 -90.419201,50.576481"
         id="path3453"
         sodipodi:nodetypes="ccccc" />
    </g>
    <g
       style="fill:#729fcf;stroke:#204a87"
       id="g3459"
       transform="translate(78.558541,-26.000447)">
      <path
         sodipodi:nodetypes="cccccc"
         id="path3461"
         d="M -53.954951,34.51211 C -53.954951,34.51211 -44.990636,30.81103 -44.990636,30.81103 C -44.990636,30.81103 -36.085529,34.325772 -36.085529,34.325772 C -36.085529,34.325772 -45.09659,37.988481 -45.09659,37.988481 C -45.09659,37.988481 -53.954951,34.51211 -53.954951,34.51211 C -53.954951,34.51211 -53.954951,34.51211 -53.954951,34.51211"
         style="opacity:1;fill:#729fcf;fill-opacity:1;stroke:#204a87;stroke-width:1;stroke-miterlimit:4;stroke-opacity:1" />
      <path
         sodipodi:nodetypes="cccccc"
         id="path3463"
         d="M -64.449702,38.914357 C -64.449702,38.914357 -56.159288,35.362674 -56.159288,35.362674 C -56.159288,35.362674 -47.310912,38.830912 -47.310912,38.830912 C -47.310912,38.830912 -55.647638,42.345157 -55.647638,42.345157 C -55.647638,42.345157 -64.449702,38.914357 -64.449702,38.914357 C -64.449702,38.914357 -64.449702,38.914357 -64.449702,38.914357"
         style="opacity:1;fill:#729fcf;fill-opacity:1;stroke:#204a87;stroke-width:1;stroke-miterlimit:4;stroke-opacity:1" />
      <path
         sodipodi:nodetypes="cccccc"
         id="path3465"
         d="M -74.55333,43.225519 C -74.55333,43.225519 -66.401676,39.7328 -66.401676,39.7328 C -66.401676,39.7328 -57.609215,43.155895 -57.609215,43.155895 C -57.609215,43.155895 -65.806749,46.612072 -65.806749,46.612072 C -65.806749,46.612072 -74.55333,43.225519 -74.55333,43.225519 C -74.55333,43.225519 -74.55333,43.225519 -74.55333,43.225519"
         style="opacity:1;fill:#729fcf;fill-opacity:1;stroke:#204a87;stroke-width:1;stroke-miterlimit:4;stroke-opacity:1" />
      <path
         sodipodi:nodetypes="cccccc"
         id="path3467"
         d="M -43.890969,38.742453 C -43.890969,38.742453 -34.695414,35.174485 -34.695414,35.174485 C -34.695414,35.174485 -25.858254,38.662409 -25.858254,38.662409 C -25.858254,38.662409 -35.099661,42.19251 -35.099661,42.19251 C -35.099661,42.19251 -43.890969,38.742453 -43.890969,38.742453 C -43.890969,38.742453 -43.890969,38.742453 -43.890969,38.742453"
         style="opacity:1;fill:#729fcf;fill-opacity:1;stroke:#204a87;stroke-width:1;stroke-miterlimit:4;stroke-opacity:1" />
      <path
         sodipodi:nodetypes="cccccc"
         id="path3469"
         d="M -54.097757,43.003194 C -54.097757,43.003194 -46.01855,39.583537 -46.01855,39.583537 C -46.01855,39.583537 -37.237036,43.025568 -37.237036,43.025568 C -37.237036,43.025568 -45.361682,46.408274 -45.361682,46.408274 C -45.361682,46.408274 -54.097757,43.003194 -54.097757,43.003194 C -54.097757,43.003194 -54.097757,43.003194 -54.097757,43.003194"
         style="opacity:1;fill:#729fcf;fill-opacity:1;stroke:#204a87;stroke-width:1;stroke-miterlimit:4;stroke-opacity:1" />
      <path
         sodipodi:nodetypes="cccccc"
         id="path3471"
         d="M -64.354417,47.174394 C -64.354417,47.174394 -55.972531,43.724268 -55.972531,43.724268 C -55.972531,43.724268 -47.24588,47.121742 -47.24588,47.121742 C -47.24588,47.121742 -55.672793,50.535797 -55.672793,50.535797 C -55.672793,50.535797 -64.354417,47.174394 -64.354417,47.174394 C -64.354417,47.174394 -64.354417,47.174394 -64.354417,47.174394"
         style="opacity:1;fill:#729fcf;fill-opacity:1;stroke:#204a87;stroke-width:1;stroke-miterlimit:4;stroke-opacity:1" />
      <path
         sodipodi:nodetypes="cccccc"
         id="path3473"
         d="M -33.452091,43.17362 C -33.452091,43.17362 -24.289615,39.562967 -24.289615,39.562967 C -24.289615,39.562967 -15.522011,43.023438 -15.522011,43.023438 C -15.522011,43.023438 -24.729431,46.596737 -24.729431,46.596737 C -24.729431,46.596737 -33.452091,43.17362 -33.452091,43.17362 C -33.452091,43.17362 -33.452091,43.17362 -33.452091,43.17362"
         style="opacity:1;fill:#729fcf;fill-opacity:1;stroke:#204a87;stroke-width:1;stroke-miterlimit:4;stroke-opacity:1" />
      <path
         sodipodi:nodetypes="cccccc"
         id="path3475"
         d="M -43.637119,47.203301 C -43.637119,47.203301 -35.5031,44.005018 -35.5031,44.005018 C -35.5031,44.005018 -26.790041,47.420216 -26.790041,47.420216 C -26.790041,47.420216 -34.968611,50.582045 -34.968611,50.582045 C -34.968611,50.582045 -43.637119,47.203301 -43.637119,47.203301 C -43.637119,47.203301 -43.637119,47.203301 -43.637119,47.203301"
         style="opacity:1;fill:#729fcf;fill-opacity:1;stroke:#204a87;stroke-width:1;stroke-miterlimit:4;stroke-opacity:1" />
      <path
         sodipodi:nodetypes="cccccc"
         id="path3477"
         d="M -53.871074,51.233397 C -53.871074,51.233397 -45.788426,47.826806 -45.788426,47.826806 C -45.788426,47.826806 -37.129159,51.198046 -37.129159,51.198046 C -37.129159,51.198046 -45.255965,54.569045 -45.255965,54.569045 C -45.255965,54.569045 -53.871074,51.233397 -53.871074,51.233397 C -53.871074,51.233397 -53.871074,51.233397 -53.871074,51.233397"
         style="opacity:1;fill:#729fcf;fill-opacity:1;stroke:#204a87;stroke-width:1;stroke-miterlimit:4;stroke-opacity:1" />
    </g>
  </g>
</svg>
